<mxfile host="app.diagrams.net" modified="2024-06-03T20:45:57.583Z" agent="Mozilla/5.0 (Macintosh; Intel Mac OS X 10_15_7) AppleWebKit/537.36 (KHTML, like Gecko) Chrome/125.0.0.0 Safari/537.36" version="24.4.9" etag="5zTr1AUKMpys-hwzpcRc" type="github">
  <diagram name="Page-1" id="2kV8zVQ9lC2bRWwEJYuB">
    <mxGraphModel>
      <root>
        <mxCell id="0" />
        <mxCell id="1" parent="0" />
      </root>
    </mxGraphModel>
  </diagram>
</mxfile>
